<svg width="159" height="153" viewBox="0 0 159 153" fill="none" xmlns="http://www.w3.org/2000/svg">
<path d="M96.8667 40.3877C96.8667 40.3877 109.909 33.2643 112.165 39.6053C114.23 45.4071 101.114 50.5004 99.8526 50.8414L96.8667 40.3877Z" fill="#FFA79D"/>
<path d="M108.073 90.3964C108.073 90.3964 105.218 94.6307 99.9498 94.7602L97.8145 87.7347L103.941 85.2422L108.073 90.3964Z" fill="#F7918E"/>
<path d="M100.905 66.9464C100.905 66.9464 106.856 66.0451 108.784 69.016C108.965 69.2988 109.051 69.6028 109.166 69.9411L101.062 75.7719L100.905 66.9464Z" fill="#F7918E"/>
<path d="M98.9268 53.5956C98.9268 53.5956 102.996 52.4908 104.773 53.2124C106.552 53.9313 108.486 56.8441 108.486 56.8441L99.4606 61.5886L98.9268 53.5956Z" fill="#F7918E"/>
<path d="M8.07568 151.808H50.1528L65.0273 114.309C65.0273 114.309 85.9311 101.334 91.2643 91.4884L66.3488 53.0329L51.8983 62.2734C50.637 63.0796 49.0459 63.143 47.7322 62.432L47.7296 62.4294C47.6092 62.3686 49.6713 56.6699 49.2997 53.3025C49.2997 53.3025 54.6932 49.4303 55.3448 47.5986C55.9964 45.7668 57.2551 43.7263 57.242 40.1527C57.2263 36.5818 53.8924 35.5457 53.0471 36.1457C52.2045 36.7457 47.46 42.0902 47.46 42.0902C47.46 42.0902 40.0228 44.8972 39.3241 45.2726C38.6306 45.6479 37.262 46.6629 36.8668 48.5897C36.8668 48.5897 31.8293 65.7518 31.5153 68.1307C30.7407 74.0091 30.076 84.2857 31.599 94.0549C31.9183 96.0901 13.7962 135.833 8.07568 151.808Z" fill="#FFA79D"/>
<path d="M87.6636 96.2431L87.7081 95.9312C87.7081 95.9312 59.7308 63.148 56.334 59.437L53.5444 61.2212C53.5444 61.2212 53.6648 74.1277 53.5968 86.9365C53.5837 89.4132 53.6596 90.526 53.6596 92.1171C53.6596 99.2934 57.5692 99.3832 62.1043 99.3832C71.4545 99.3832 80.2682 99.2801 84.8661 99.2563C86.0804 98.1964 86.8262 97.2951 87.6636 96.2431Z" fill="#F79292"/>
<path d="M98.3669 10.3433H59.349C57.6139 10.3433 56.2061 11.7679 56.2061 13.5283V94.4013C56.2061 96.159 57.6139 97.581 59.349 97.581H98.3669C100.102 97.581 101.507 96.159 101.507 94.4013V13.5283C101.507 11.7679 100.102 10.3433 98.3669 10.3433Z" fill="white"/>
<path d="M102.668 93.6393V13.9875C102.668 11.495 100.674 9.47559 98.2143 9.47559H59.3952C56.9379 9.47559 54.9438 11.495 54.9438 13.9875V93.6393C54.9438 96.1319 56.9379 98.1512 59.3952 98.1512H98.2143C100.674 98.1512 102.668 96.1319 102.668 93.6393ZM100.551 93.6393C100.551 94.9451 99.5044 96.0076 98.2143 96.0076H59.3952C58.1077 96.0076 57.0583 94.9451 57.0583 93.6393V13.9875C57.0583 12.6817 58.1077 11.6192 59.3952 11.6192H98.2143C99.5044 11.6192 100.551 12.6817 100.551 13.9875V93.6393Z" fill="#242C5B"/>
<path d="M99.3556 74.3477C99.3556 74.3477 99.1201 77.0199 101.224 78.6693C103.328 80.3212 105.877 79.9909 106.913 79.1186C107.952 78.249 109.862 75.0666 110.116 74.0781C110.47 72.6825 109.944 70.0948 108.373 68.6569C107.196 67.5785 103.55 67.8323 102.559 68.7336C101.719 69.4948 99.1776 71.8869 99.3556 74.3477Z" fill="#FFA79D"/>
<path d="M103.844 92.2966C103.844 92.2966 104.189 92.3627 104.584 92.2966C105.725 92.1142 107.649 91.2737 108.277 90.0763C109.308 88.1151 108.779 85.9926 108.397 85.2737C107.892 84.3274 105.403 81.8508 104.129 81.6393C102.854 81.4305 101.58 81.3856 100.719 83.6138C99.8607 85.8446 100.41 87.9459 100.614 88.501C100.824 89.0561 101.839 91.9979 103.844 92.2966Z" fill="#FFA79D"/>
<path d="M102.705 64.5911C102.705 64.5911 100.821 61.6942 101.8 56.3973C102.779 51.1004 108.863 55.1048 109.507 59.4423C109.87 61.8845 108.892 63.5709 108.002 64.2185C107.044 64.9163 105.545 65.6775 102.705 64.5911Z" fill="#FFA79D"/>
<path d="M102.745 71.5853L102.648 71.7254L102.677 71.7492C102.829 71.8602 103.541 72.4047 104.208 73.2716C104.875 74.136 105.496 75.3174 105.496 76.7078C105.496 77.0857 105.451 77.4796 105.346 77.8866C105.328 77.9659 105.362 78.0452 105.433 78.0848C105.501 78.1219 105.587 78.106 105.639 78.0452C105.645 78.032 106.752 76.7897 107.047 75.4258C107.094 75.2091 107.115 74.9844 107.115 74.7571C107.115 73.7315 106.663 72.6558 105.817 72.1139C104.896 71.5298 103.771 71.4108 102.962 71.4082C102.886 71.4082 102.811 71.4108 102.74 71.4108C102.667 71.4135 102.604 71.4637 102.583 71.5351C102.559 71.6064 102.588 71.6831 102.648 71.7254L102.745 71.5853L102.75 71.7571C102.818 71.7545 102.889 71.7545 102.962 71.7545C103.737 71.7518 104.807 71.8787 105.634 72.4073C106.354 72.8593 106.778 73.832 106.775 74.7571C106.775 74.9606 106.757 75.1615 106.715 75.3545C106.584 75.9677 106.252 76.5888 105.951 77.0514C105.799 77.284 105.658 77.4769 105.553 77.6091C105.501 77.6752 105.459 77.728 105.43 77.7624C105.401 77.7994 105.386 77.8152 105.386 77.8152L105.511 77.9315L105.679 77.9738C105.786 77.5351 105.836 77.1148 105.836 76.7078C105.836 75.1113 105.082 73.795 104.336 72.8831C103.59 71.9686 102.85 71.4479 102.842 71.4426L102.745 71.5853L102.75 71.7571L102.745 71.5853Z" fill="#FFFCEC"/>
<path d="M104.054 83.5245L103.92 83.6303L103.931 83.6461C103.994 83.7307 104.287 84.1404 104.561 84.7034C104.836 85.2664 105.093 85.9827 105.093 86.6725C105.093 86.7941 105.085 86.9157 105.066 87.0347C104.959 87.8117 104.674 88.4355 104.42 88.869C104.292 89.0858 104.169 89.2523 104.08 89.3659C104.038 89.4214 104.001 89.4637 103.978 89.4928L103.949 89.5219L103.939 89.5298C103.884 89.5906 103.876 89.6858 103.926 89.7545C103.973 89.8232 104.064 89.8443 104.14 89.8047C104.148 89.8021 104.718 89.5087 105.297 89.0038C105.585 88.7527 105.878 88.4514 106.1 88.0999C106.323 87.7483 106.477 87.3465 106.477 86.9078C106.477 86.8602 106.477 86.81 106.472 86.7598C106.38 85.6338 105.791 84.7853 105.234 84.225C104.674 83.662 104.143 83.3792 104.135 83.3712C104.064 83.3342 103.975 83.3501 103.923 83.4135C103.873 83.4769 103.871 83.5668 103.92 83.6303L104.054 83.5245L103.975 83.6778L103.994 83.6884C104.098 83.7466 104.601 84.0479 105.093 84.5686C105.582 85.0946 106.056 85.8347 106.132 86.7888C106.137 86.8285 106.137 86.8708 106.137 86.9078C106.137 87.262 106.011 87.6003 105.812 87.9122C105.517 88.38 105.059 88.7818 104.674 89.062C104.48 89.2021 104.308 89.3104 104.182 89.3844C104.122 89.4241 104.069 89.4505 104.035 89.4717C104.001 89.4875 103.986 89.4981 103.986 89.4981L104.062 89.6514L104.185 89.7703C104.198 89.7571 105.169 88.7501 105.404 87.0849C105.425 86.9474 105.433 86.81 105.433 86.6725C105.43 85.8452 105.119 85.0391 104.81 84.4338C104.501 83.8285 104.192 83.4267 104.19 83.4188L104.054 83.5245L103.975 83.6778L104.054 83.5245Z" fill="#FFFCEC"/>
<path d="M53.1181 36.7829L52.9925 36.664C52.9925 36.6666 52.6811 37.0076 52.21 37.5204C51.5061 38.2895 50.4462 39.4446 49.5591 40.4094C49.1168 40.8931 48.7138 41.3265 48.4207 41.6411C48.2768 41.7997 48.1564 41.9265 48.0727 42.0138C48.0308 42.0587 47.9994 42.0931 47.9785 42.1142L47.9549 42.138L47.9497 42.1406L47.9942 42.1882L47.9549 42.138L47.9497 42.1406L47.9942 42.1882L47.9549 42.138L48.0544 42.2649L47.9994 42.1116C47.9549 42.1327 47.9602 42.1354 47.9549 42.138L48.0544 42.2649L47.9994 42.1116C47.9209 42.1433 47.8738 42.2252 47.8921 42.3098C47.9078 42.3917 47.9811 42.4499 48.0648 42.4472C48.6249 42.4235 49.3445 42.2199 50.8126 41.6146C51.8829 41.1732 52.5476 40.523 52.9323 39.8384C53.3222 39.1539 53.4373 38.4376 53.4373 37.8534C53.4347 37.3512 53.3536 36.9495 53.2803 36.7274C53.2594 36.6693 53.2123 36.627 53.1521 36.6138C53.0945 36.6006 53.0343 36.6217 52.9925 36.664L53.1181 36.7829L52.9558 36.8384C53.016 37.0155 53.0945 37.3935 53.0945 37.8534C53.0945 38.3926 52.9899 39.0481 52.6392 39.6666C52.2859 40.2878 51.6919 40.8772 50.6844 41.2948C49.2267 41.8975 48.5359 42.0825 48.0518 42.101L48.057 42.2754L48.1198 42.4367C48.1591 42.4182 48.1564 42.4129 48.1669 42.4076L48.2062 42.3706C48.3135 42.2622 48.6772 41.871 49.1692 41.3371C50.6425 39.7433 53.2437 36.8992 53.2437 36.8992L53.1181 36.7829L52.9558 36.8384L53.1181 36.7829Z" fill="#FFFCEC"/>
<path d="M57.4485 40.2608C57.3516 37.792 55.6559 36.4335 54.3945 36.0898L54.8839 48.3885C55.5695 47.6141 57.6604 45.7929 57.4485 40.2608Z" fill="#FFA79D"/>
<path d="M21.9795 111.875L26.6664 101.363C26.6664 101.363 47.4367 106.028 63.1015 122.498L60.4139 129.46C60.4139 129.46 41.0515 133.218 21.9795 111.875Z" fill="#E6EBEF"/>
<path d="M62.5361 129.808L54.1698 152.999H0L21.3618 106.318C21.3618 106.318 45.0813 110.867 62.5361 129.808Z" fill="#233466"/>
<path d="M33.232 95.4822C33.2451 95.4981 37.9896 100.557 50.6528 107.295C50.7365 107.339 50.8386 107.305 50.883 107.221C50.9275 107.139 50.8961 107.033 50.8124 106.988C44.4952 103.628 40.159 100.689 37.4034 98.5906C36.0243 97.5439 35.0429 96.7033 34.407 96.1298C34.0878 95.8417 33.8549 95.6196 33.7031 95.4716C33.6272 95.3976 33.5696 95.3395 33.533 95.2998C33.4964 95.2628 33.478 95.247 33.478 95.247C33.4152 95.1782 33.3079 95.1756 33.2373 95.239C33.1692 95.3051 33.1666 95.4135 33.232 95.4822Z" fill="#DB7785"/>
<path d="M52.5685 108.328C52.5764 108.331 59.2782 112.023 63.8604 112.94C63.952 112.959 64.041 112.898 64.0593 112.805C64.0776 112.71 64.0175 112.62 63.9259 112.602C61.6832 112.155 58.8779 111.008 56.6404 109.977C55.523 109.459 54.5443 108.973 53.8456 108.613C53.4975 108.434 53.2175 108.286 53.0265 108.183C52.8328 108.082 52.7308 108.027 52.7308 108.027C52.647 107.979 52.545 108.011 52.5005 108.095C52.4534 108.177 52.4848 108.283 52.5685 108.328Z" fill="#DB7785"/>
<path d="M42.4804 50.0196C42.4935 50.0328 44.8985 52.3825 48.7846 53.1702C48.8735 53.1914 48.9651 53.1306 48.9834 53.0354C49.0018 52.9429 48.9416 52.853 48.85 52.8319C46.958 52.4513 45.4218 51.6821 44.3594 51.0134C43.8281 50.6751 43.4173 50.3658 43.1373 50.1385C42.9986 50.0248 42.8913 49.9323 42.8206 49.8689C42.7866 49.8372 42.7605 49.8134 42.7421 49.7975L42.716 49.7711C42.6479 49.705 42.5406 49.7077 42.4752 49.7764C42.4098 49.8451 42.4124 49.9561 42.4804 50.0196Z" fill="#DB7785"/>
<path d="M38.1413 46.9219L39.68 48.2857C39.7507 48.3465 39.858 48.3413 39.9208 48.2699C39.9836 48.1985 39.9757 48.0875 39.9051 48.0241L38.3663 46.6602C38.2957 46.5968 38.1858 46.6047 38.1256 46.6761C38.0628 46.7501 38.0706 46.8584 38.1413 46.9219Z" fill="#DB7785"/>
<path d="M39.9415 45.9358L40.5382 47.4028C40.5748 47.49 40.6742 47.5323 40.7606 47.498C40.847 47.461 40.8888 47.3605 40.8522 47.2733L40.2582 45.8037C40.2215 45.7165 40.1195 45.6742 40.0331 45.7112C39.9467 45.7455 39.9049 45.8486 39.9415 45.9358Z" fill="#DB7785"/>
<path d="M37.5632 48.9464L39.2668 49.0336C39.361 49.0389 39.4421 48.9649 39.4448 48.8698C39.45 48.7746 39.3793 48.6927 39.2851 48.6874L37.5815 48.6028C37.4873 48.5975 37.4088 48.6715 37.4036 48.7667C37.3984 48.8618 37.4716 48.9411 37.5632 48.9464Z" fill="#DB7785"/>
<path d="M46.9499 62.4555C46.9499 62.4555 46.929 62.4793 46.8845 62.5189C46.581 62.815 45.2437 64.0335 43.9562 64.4854C43.8672 64.5172 43.8201 64.615 43.8515 64.7048C43.8803 64.7947 43.9798 64.8423 44.0687 64.8132C45.652 64.2502 47.1802 62.7066 47.1907 62.7013C47.2561 62.6352 47.2561 62.5268 47.1907 62.4581C47.1253 62.3894 47.018 62.3894 46.9499 62.4555Z" fill="#DB7785"/>
<path d="M93.8942 52.5995C93.8942 61.0391 87.14 67.8823 78.8078 67.8823C70.473 67.8823 63.7188 61.0391 63.7188 52.5995C63.7188 44.1599 70.473 37.3193 78.8078 37.3193C87.14 37.3193 93.8942 44.1599 93.8942 52.5995Z" fill="#14C68B"/>
<path d="M69.9761 52.3241L78.2769 60.5418L89.6499 48.629L87.1979 46.229L78.2088 55.6493L72.3575 49.8554L69.9761 52.3241Z" fill="white"/>
<path d="M92.479 106.433C92.0498 106.19 90.2729 105.579 88.5039 106.869C86.5308 108.31 88.8336 113.839 88.6426 115.073C88.4489 116.305 87.185 118.655 88.2658 122.982C89.0377 126.074 100.319 136.895 108.735 140.255L109.502 136.843L92.479 106.433Z" fill="#FFA79D"/>
<path d="M95.7995 98.154H86.0254L86.028 98.1514H95.7969C95.7969 98.1514 95.7969 98.154 95.7995 98.154Z" fill="#E6E8EC"/>
<path d="M86.0261 98.154H85.3561L85.3535 98.1514H86.0287L86.0261 98.154Z" fill="#DF868A"/>
<path d="M94.8625 96.0075H84.5153C81.3541 87.9009 77.6041 78.1238 77.154 76.6806C76.4422 74.3837 77.1592 71.7723 79.1611 70.9555C79.7316 70.7256 80.3099 70.604 80.8752 70.604C82.427 70.604 83.9003 71.5027 84.9209 73.4613C86.2843 76.0833 91.7536 88.8524 94.8625 96.0075Z" fill="#E6E8EC"/>
<path d="M95.7966 98.1514H85.3525C85.0804 97.4536 84.8004 96.7373 84.5151 96.0078H94.8624C95.2052 96.7955 95.5218 97.5197 95.7966 98.1514Z" fill="#212A58"/>
<path d="M119.176 153H155.035C152.4 148.348 146.23 137.421 141.017 127.996C141.017 127.996 139.478 109.903 129.853 99.6559C127.985 97.6682 126.053 96.344 123.468 96.3281C121.186 96.3123 119.053 97.5678 118.593 97.3801C115.68 96.1854 111.906 96.7167 108.442 98.3581C108.442 98.3581 104.011 96.677 98.5444 99.9889C98.3979 100.076 88.3333 76.2533 86.4125 72.5634C85.0203 69.8885 82.7855 69.1881 80.6527 70.0577C78.6534 70.8744 77.9363 73.4832 78.6481 75.7801C79.3599 78.0797 88.4406 101.48 90.1965 105.672C90.1965 105.672 97.4794 130.985 102.619 135.873C107.798 140.791 112.273 141.46 113.579 142.726C114.845 143.953 117.161 148.48 119.176 153Z" fill="#FFA79D"/>
<path d="M90.2961 107.207C90.2961 107.21 91.6726 112.29 94.054 118.604C96.438 124.919 99.819 132.468 103.852 137.421C103.912 137.495 104.019 137.506 104.092 137.445C104.163 137.384 104.174 137.276 104.113 137.202C100.128 132.309 96.7468 124.779 94.3732 118.48C93.1852 115.332 92.2483 112.488 91.6072 110.434C91.2879 109.406 91.0419 108.576 90.8744 108.003C90.7096 107.429 90.6232 107.115 90.6232 107.115C90.5997 107.022 90.5054 106.966 90.4139 106.993C90.3249 107.019 90.2699 107.115 90.2961 107.207Z" fill="#DB7785"/>
<path d="M147.488 134.16L142.856 126.938C142.856 126.938 125.457 131.503 112.38 144.899L115.306 151.605C115.306 151.605 136.738 144.719 147.488 134.16Z" fill="#E6EBEF"/>
<path d="M159 153L146.695 129.748C146.695 129.748 132.014 133.715 112.309 150.106L113.256 153H159Z" fill="#233466"/>
<path d="M80.1838 75.9544L80.3461 75.9042C80.1838 75.3597 80.0399 74.6566 80.0399 73.9668C80.0399 73.4408 80.1236 72.9254 80.3382 72.4892C80.5502 72.0531 80.8878 71.6989 81.4216 71.4663C81.7304 71.3368 82.0235 71.2813 82.3061 71.2813C83.1017 71.2787 83.8266 71.7333 84.3866 72.2514C84.944 72.7694 85.326 73.3403 85.4412 73.528L85.5851 73.4355L85.5956 73.2637C85.593 73.2637 85.5616 73.261 85.5066 73.261C85.0068 73.261 82.4344 73.3879 80.0635 75.8302L80.1838 75.9544L80.3461 75.9042L80.1838 75.9544L80.3042 76.0734C82.5914 73.7183 85.0591 73.6073 85.5066 73.6073H85.5773C85.6401 73.6099 85.7003 73.5782 85.7343 73.5227C85.7657 73.4672 85.7631 73.3985 85.729 73.343C85.6034 73.1395 85.2057 72.5474 84.6142 71.9976C84.0254 71.4505 83.2325 70.9377 82.3061 70.9351C81.979 70.9351 81.6362 71.0011 81.2908 71.1492C80.681 71.4082 80.2754 71.8364 80.0321 72.3359C79.7861 72.8381 79.6997 73.4038 79.6997 73.9668C79.6997 74.7042 79.8515 75.4364 80.019 76.002C80.0373 76.0602 80.0844 76.1051 80.142 76.121C80.1995 76.1342 80.2623 76.1183 80.3042 76.0734L80.1838 75.9544Z" fill="#FFFCEC"/>
<path d="M89.7204 111.825L89.5556 111.775C89.2756 112.718 88.9799 113.35 88.8255 113.651L88.9746 113.733L89.1447 113.731C89.1343 113.263 88.9406 112.515 88.7522 111.658C88.5612 110.805 88.3754 109.856 88.3754 109.055C88.3754 108.553 88.4512 108.114 88.624 107.797L88.4748 107.715L88.5245 107.879L88.5428 107.876L88.5978 107.889C88.8569 108.003 89.1552 108.307 89.3776 108.754C89.6001 109.2 89.7545 109.784 89.7545 110.45C89.7545 110.863 89.6943 111.31 89.5556 111.775L89.7204 111.825L89.8827 111.875C90.0292 111.376 90.0947 110.897 90.0947 110.45C90.0947 109.729 89.9298 109.095 89.6786 108.598C89.43 108.101 89.0976 107.739 88.7365 107.575C88.6815 107.551 88.6187 107.53 88.5428 107.53C88.5036 107.53 88.4643 107.538 88.4225 107.548C88.3806 107.562 88.3466 107.593 88.3256 107.63C88.111 108.029 88.0352 108.521 88.0352 109.055C88.0352 109.906 88.2288 110.873 88.4198 111.732C88.6109 112.589 88.7993 113.353 88.8045 113.733C88.8071 113.813 88.8595 113.881 88.9354 113.9C89.0113 113.918 89.0898 113.881 89.1264 113.813C89.2913 113.493 89.5948 112.84 89.8827 111.875L89.7204 111.825Z" fill="#FFFCEC"/>
<path d="M84.6564 87.1531L84.6773 87.1267C84.7951 86.9972 85.3682 86.384 86.2684 85.8104C87.1634 85.2342 88.3829 84.6976 89.7934 84.6976C89.9085 84.6976 90.0263 84.7029 90.1467 84.7082C90.2383 84.7161 90.3194 84.6448 90.3246 84.5496C90.3298 84.4518 90.2592 84.3699 90.165 84.3646C90.042 84.3566 89.9164 84.354 89.7934 84.354C88.1971 84.354 86.8494 84.9989 85.902 85.6386C84.9547 86.2782 84.4052 86.9179 84.3973 86.9258C84.3371 86.9972 84.345 87.1055 84.4156 87.169C84.4863 87.2324 84.5936 87.2245 84.6564 87.1531Z" fill="#DB7785"/>
<path d="M86.1853 88.1731L86.1984 88.1546C86.2821 88.0648 86.6877 87.6313 87.3262 87.2216C87.9621 86.8146 88.8231 86.4339 89.8175 86.4366C89.9013 86.4366 89.9824 86.4392 90.0661 86.4419C90.1603 86.4498 90.2415 86.3784 90.2467 86.2833C90.2546 86.1855 90.1813 86.1035 90.0897 86.0983C89.9981 86.093 89.9091 86.0903 89.8175 86.0903C88.6635 86.0903 87.6926 86.5555 87.0122 87.0154C86.3292 87.478 85.9341 87.9379 85.9288 87.9458C85.866 88.0172 85.8739 88.1256 85.9445 88.189C86.0152 88.2524 86.1225 88.2445 86.1853 88.1731Z" fill="#DB7785"/>
<path d="M130.586 130.467C133.255 129.203 136.045 128.149 138.8 127.53C138.892 127.509 138.952 127.417 138.931 127.321C138.91 127.229 138.818 127.171 138.727 127.192C135.94 127.818 133.127 128.883 130.442 130.155C130.355 130.194 130.319 130.298 130.358 130.382C130.397 130.469 130.499 130.506 130.586 130.467Z" fill="#DB7785"/>
<path d="M114.657 140.979C114.657 140.979 114.753 140.891 114.944 140.733C116.263 139.609 121.997 134.876 129.008 131.143C129.091 131.098 129.125 130.993 129.081 130.908C129.037 130.826 128.934 130.792 128.848 130.837C120.799 135.124 114.439 140.712 114.434 140.717C114.364 140.78 114.356 140.889 114.416 140.96C114.479 141.031 114.586 141.039 114.657 140.979Z" fill="#DB7785"/>
<path d="M100.439 101.337L100.466 101.318C100.743 101.152 103.135 99.756 106.092 99.7587C106.594 99.7587 107.115 99.7983 107.646 99.8908C107.738 99.9093 107.827 99.8459 107.843 99.7507C107.858 99.6582 107.798 99.5683 107.704 99.5525C107.152 99.4547 106.613 99.415 106.092 99.415C102.823 99.415 100.272 101.035 100.259 101.043C100.178 101.093 100.154 101.199 100.207 101.281C100.254 101.363 100.361 101.387 100.439 101.337Z" fill="#DB7785"/>
<path d="M111.333 99.2907C111.333 99.2907 111.357 99.2801 111.409 99.2589C111.765 99.1109 113.343 98.503 115.301 98.503C116.12 98.503 117.004 98.6087 117.897 98.8968C117.986 98.9259 118.082 98.8757 118.111 98.7858C118.14 98.6933 118.088 98.5981 117.999 98.5664C117.07 98.2678 116.149 98.1567 115.301 98.1567C112.985 98.1594 111.205 98.9708 111.195 98.9761C111.108 99.0131 111.072 99.1162 111.108 99.2034C111.148 99.2907 111.247 99.3303 111.333 99.2907Z" fill="#DB7785"/>
<path d="M121.071 98.4901C121.073 98.4901 121.089 98.4795 121.131 98.4636C121.411 98.3447 122.664 97.8636 124.216 97.8663C124.863 97.8663 125.564 97.9509 126.271 98.1755C126.357 98.2046 126.454 98.1544 126.482 98.0645C126.511 97.9746 126.462 97.8768 126.373 97.8478C125.629 97.6072 124.891 97.52 124.216 97.52C122.363 97.5227 120.945 98.1676 120.932 98.1755C120.846 98.2125 120.809 98.3156 120.846 98.4028C120.885 98.4901 120.987 98.5271 121.073 98.4901" fill="#DB7785"/>
<path d="M100.669 0.459911V6.73744C100.669 6.99382 100.874 7.19999 101.122 7.19999C101.373 7.19999 101.577 6.99382 101.577 6.73744V0.459911C101.577 0.206167 101.373 0 101.122 0C100.874 0 100.669 0.206167 100.669 0.459911Z" fill="#D8E1EA"/>
<path d="M111.622 11.1602H105.422C105.171 11.1602 104.967 11.3663 104.967 11.6201C104.967 11.8738 105.171 12.08 105.422 12.08H111.622C111.873 12.08 112.074 11.8738 112.074 11.6201C112.074 11.3663 111.873 11.1602 111.622 11.1602Z" fill="#D8E1EA"/>
<path d="M111.352 0.608435L104.731 7.3168C104.553 7.49653 104.553 7.78728 104.731 7.96702C104.909 8.14675 105.194 8.14675 105.372 7.96702L111.996 1.25865C112.174 1.07892 112.174 0.785527 111.996 0.608435C111.818 0.428699 111.53 0.428699 111.352 0.608435Z" fill="#D8E1EA"/>
</svg>
