<svg width="125" height="119" viewBox="0 0 125 119" fill="none" xmlns="http://www.w3.org/2000/svg">
<path d="M116.971 42.9461H115.161V44.7561C115.161 44.9537 115.001 45.1137 114.806 45.1137C114.609 45.1137 114.452 44.9537 114.452 44.7561V42.9461H112.639C112.444 42.9461 112.284 42.7861 112.284 42.5885C112.284 42.394 112.444 42.234 112.639 42.234H114.452V40.424C114.452 40.2264 114.609 40.0664 114.806 40.0664C115.001 40.0664 115.161 40.2264 115.161 40.424V42.234H116.971C117.168 42.234 117.325 42.394 117.325 42.5885C117.328 42.7861 117.168 42.9461 116.971 42.9461Z" fill="#F7A7AB"/>
<path d="M96.6576 43.1976H93.5551V46.3032C93.5551 46.6388 93.2822 46.9118 92.9466 46.9118C92.6109 46.9118 92.338 46.6388 92.338 46.3032V43.1976H89.2387C88.9031 43.1976 88.6302 42.9279 88.6302 42.5891C88.6302 42.2534 88.9031 41.9805 89.2387 41.9805H92.338V38.8781C92.338 38.5424 92.6109 38.2695 92.9466 38.2695C93.2822 38.2695 93.5551 38.5424 93.5551 38.8781V41.9805H96.6576C96.9932 41.9805 97.2661 42.2534 97.2661 42.5891C97.2661 42.9279 96.9932 43.1976 96.6576 43.1976Z" fill="#F7A7AB"/>
<path d="M90.9564 62.6256C90.6113 62.0829 90.2443 61.6186 89.9432 61.2673C85.3005 61.3991 67.6177 61.857 66.9339 61.192C66.915 61.1732 66.8962 61.1324 66.8743 61.0822C62.1626 60.9254 52.0617 60.8846 49.9286 63.3188C49.3106 64.0278 49.2949 65.888 49.6463 68.3536C50.8791 77.0209 56.651 93.1823 56.651 93.1823L67.3762 93.0067L68.3831 92.991L66.8774 88.5836C66.8617 88.5899 66.8429 88.593 66.8241 88.593H59.4335C59.3456 88.593 59.2735 88.5209 59.2735 88.433C59.2735 88.3421 59.3456 88.2699 59.4335 88.2699H66.7707L64.578 81.8455L61.1117 71.6913C61.1117 71.6913 62.8151 71.7603 65.4062 71.7917C65.4062 71.5062 65.4375 71.2992 65.5097 71.2208C65.8046 70.9039 79.974 69.3637 90.7149 68.683C92.9327 66.8197 92.0606 64.3478 90.9564 62.6256ZM29.4476 52.6063C30.1346 52.8886 30.7306 53.3278 31.198 53.8704C32.0638 54.8805 32.4904 56.2451 32.2677 57.641C32.6787 57.9265 33.1649 58.1178 33.695 58.1743C34.084 58.2151 34.4636 58.1774 34.8212 58.0833C35.0219 58.4002 35.2729 58.6731 35.6587 58.8048C35.7058 58.8205 35.756 58.8299 35.803 58.8393C37.0955 67.7168 41.2456 91.8962 48.8495 98.0854H68.9917C70.8236 100.868 71.8776 102.389 72.4862 103.227H59.9103V104.265H43.6987C43.7144 104.121 43.7269 103.973 43.7395 103.82C44.806 91.7205 35.3576 84.0602 25.3759 81.3154C24.8426 81.1711 24.3031 81.0581 23.7635 80.986L31.4678 59.611C30.4264 61.0759 28.5787 61.8665 26.7091 61.4681C26.6746 61.4618 26.637 61.4524 26.6024 61.443C26.5585 61.4367 26.5178 61.4241 26.4738 61.4116C26.4644 61.4116 26.4582 61.4085 26.4487 61.4053C26.4425 61.4022 26.4362 61.3991 26.4331 61.3959C27.6125 61.5088 28.9457 59.7208 29.4602 57.2897C29.9746 54.8586 29.479 52.6847 28.356 52.3051C28.3623 52.3051 28.3685 52.3051 28.3748 52.3051C28.3842 52.3051 28.3936 52.3051 28.3999 52.3083C28.447 52.3145 28.4877 52.3208 28.5285 52.3302C28.5662 52.3365 28.6038 52.3459 28.6383 52.3522C28.8077 52.3898 28.974 52.4369 29.1371 52.4902C29.2437 52.5216 29.3441 52.5623 29.4476 52.6063ZM108.482 52.0197H95.1693V49.623H108.482V52.0197ZM108.482 52.669V68.0305H95.1693V52.669H108.482ZM109.132 49.623H122.445V52.0197H109.132V49.623ZM122.445 68.3536V52.669H109.132V68.0305H119.286C119.415 68.0305 119.534 68.1058 119.584 68.225C119.603 68.2689 119.606 68.3097 119.606 68.3536H122.445ZM115.635 65.0379C115.635 64.8371 115.798 64.674 115.998 64.674H117.852V62.8169C117.852 62.6162 118.015 62.4531 118.216 62.4531C118.417 62.4531 118.58 62.6162 118.58 62.8169V64.674H120.434C120.635 64.674 120.798 64.8371 120.798 65.0379C120.798 65.2386 120.635 65.4018 120.434 65.4018H118.58V67.2557C118.58 67.4596 118.417 67.6227 118.216 67.6227C118.015 67.6227 117.852 67.4596 117.852 67.2557V65.4018H115.998C115.798 65.4018 115.635 65.2386 115.635 65.0379Z" fill="#FA8832" fill-opacity="0.1"/>
<path d="M66.9324 61.1946C66.9136 61.1758 66.8948 61.1381 66.8728 61.0848C66.5999 60.4041 66.2266 56.9754 65.8565 52.7186C65.7655 51.6583 65.6714 50.5479 65.5804 49.4186C68.3535 47.6337 71.3116 45.6072 72.1554 44.572C74.2164 42.0437 74.3042 38.3892 72.3844 34.7974C72.3436 34.719 72.2464 34.6907 72.1648 34.7315C72.0864 34.7723 72.0582 34.8727 72.0989 34.9511C73.956 38.4237 73.8807 41.9433 71.9044 44.3681C70.8442 45.6637 66.189 48.6751 63.0113 50.6545C59.8273 52.5053 56.4959 54.3059 54.4098 55.0431C53.2523 55.454 51.9693 55.7928 50.6769 56.0751C48.5751 56.5331 46.4546 56.8374 44.8265 57.0287C43.0981 57.2326 41.9217 57.3079 41.9217 57.3079L41.2065 55.2564L41.0999 54.949L39.3651 49.9675L39.2522 49.6382L39.1142 49.2398C39.1142 49.2398 39.3118 49.1864 39.6632 49.0923C41.2787 48.6532 46.166 47.2949 50.3318 45.7986C53.7919 44.5563 60.577 38.6903 64.5421 35.0891C64.4448 33.6461 64.3915 32.7709 64.3915 32.7709C64.4888 32.0024 64.9468 31.1586 65.8125 30.4559C66.9826 29.5054 68.9087 28.8247 71.7351 28.9502C71.8166 28.9533 71.8919 28.9533 71.9703 28.9564C77.0647 29.2638 91.0522 61.2385 91.0522 61.2385C91.0522 61.2385 90.6444 61.2479 89.9418 61.2699C85.2991 61.4016 67.6163 61.8596 66.9324 61.1946ZM84.7313 53.3993H82.8743V51.5454C82.8743 51.3415 82.7143 51.1815 82.5104 51.1815C82.3096 51.1815 82.1465 51.3415 82.1465 51.5454V53.3993H80.2926C80.0918 53.3993 79.9287 53.5624 79.9287 53.7632C79.9287 53.964 80.0918 54.1271 80.2926 54.1271H82.1465V55.9841C82.1465 56.1849 82.3096 56.348 82.5104 56.348C82.7143 56.348 82.8743 56.1849 82.8743 55.9841V54.1271H84.7313C84.9321 54.1271 85.0952 53.964 85.0952 53.7632C85.0952 53.5624 84.9321 53.3993 84.7313 53.3993ZM111.326 86.1582H70.3736C70.5462 86.6444 70.7124 87.1369 70.8693 87.6263H111.976C111.787 87.1432 111.574 86.6507 111.336 86.1551C111.332 86.1551 111.332 86.1582 111.326 86.1582ZM80.7914 97.4605L74.4391 103.226H75.1951V104.588H59.9057V103.226H72.4816C71.8762 102.392 70.8222 100.87 68.9902 98.0879C72.8675 97.5358 72.4722 92.8116 70.9696 87.9525H112.098C112.939 90.1986 113.29 92.1435 113.384 92.7269L103.139 93.0218C103.051 93.0249 102.979 93.0971 102.982 93.188C102.985 93.2759 103.057 93.3449 103.145 93.3449H103.148L113.575 93.0469C113.622 93.0469 113.663 93.0249 113.695 92.9904C113.723 92.9559 113.735 92.9089 113.732 92.8649C113.726 92.8179 113.422 90.5875 112.427 87.9149C112.465 87.8835 112.49 87.8396 112.49 87.7894C112.49 87.6984 112.418 87.6263 112.327 87.6263H112.317C111.276 84.9223 109.529 81.8324 106.68 80.1102C102.038 77.2995 92.0215 78.0493 86.466 78.7488C86.259 78.7739 86.1335 78.7896 86.099 78.7927C86.0112 78.7959 85.939 78.868 85.9422 78.9558C85.9422 79.0437 86.0143 79.1158 86.1022 79.1158C86.1367 79.1158 86.2214 79.1033 86.5037 79.0688C92.0215 78.3755 101.956 77.6289 106.514 80.3863C108.638 81.6724 110.137 83.7428 111.182 85.8351H70.2544C69.5863 83.9969 68.824 82.2276 68.1401 80.7439C67.2587 78.8272 66.5121 77.3936 66.2768 76.9231C66.2329 76.8321 66.2078 76.7788 66.2015 76.76V76.7569C66.1137 76.2957 102.618 73.1964 102.684 73.1933C102.684 73.1933 106.348 74.2661 110.118 77.5474C110.002 77.676 110.009 77.8736 110.137 77.9959C110.2 78.0555 110.278 78.0838 110.36 78.0838C110.445 78.0838 110.529 78.0493 110.595 77.9834L110.598 77.9771C114.432 81.5061 118.215 87.3628 118.215 96.7516H81.5724L80.7914 97.4605ZM83.8624 92.8838C83.8624 92.6799 83.6993 92.5136 83.4954 92.5136H81.6101V90.6315C81.6101 90.4276 81.4438 90.2613 81.2399 90.2613C81.036 90.2613 80.8729 90.4276 80.8729 90.6315V92.5136H78.9876C78.7837 92.5136 78.6175 92.6799 78.6175 92.8838C78.6175 93.0877 78.7837 93.2539 78.9876 93.2539H80.8729V95.1392C80.8729 95.3431 81.036 95.5094 81.2399 95.5094C81.4438 95.5094 81.6101 95.3431 81.6101 95.1392V93.2539H83.4954C83.6993 93.2539 83.8624 93.0877 83.8624 92.8838ZM25.3745 81.3179C24.8381 81.1705 24.3016 81.0607 23.7621 80.9886C21.7137 80.7031 19.6402 80.9195 17.6702 81.4716H20.7412C21.0769 81.4716 21.3467 81.7446 21.3467 82.0802C21.3467 82.4159 21.0769 82.6888 20.7412 82.6888H17.6388V85.7912C17.6388 86.1268 17.3659 86.3997 17.0303 86.3997C16.6946 86.3997 16.4217 86.1268 16.4217 85.7912V82.6888H14.4737C8.83347 85.4179 4.86526 90.5342 6.39922 93.2477C7.17404 94.6153 8.5135 94.8757 10.242 94.722C13.9655 94.3864 19.4802 92.0933 24.9918 94.6185C29.5623 96.7108 33.794 101.262 36.6047 104.817C36.6047 104.817 36.6047 104.817 36.6078 104.817C36.6297 104.851 36.6548 104.879 36.6768 104.908H51.963V104.268H43.6941C43.7098 104.123 43.7255 103.976 43.738 103.822C44.8046 91.7231 35.3562 84.0627 25.3745 81.3179ZM26.3061 53.4715C26.2967 53.4652 26.2842 53.4621 26.2748 53.4589C26.2058 53.4307 26.1242 53.4495 26.0803 53.5123C24.6687 55.5732 24.3173 58.3086 25.1612 60.6582C25.1863 60.724 25.249 60.7648 25.3149 60.7648C25.3337 60.7648 25.3494 60.7617 25.3682 60.7554C25.3964 60.746 25.4184 60.7272 25.4372 60.7052C25.4717 60.6613 25.4874 60.6048 25.4654 60.5484C24.6561 58.2961 24.9949 55.6705 26.3469 53.6973C26.3971 53.622 26.3783 53.5217 26.3061 53.4715ZM69.5016 17.7733C69.5016 19.2194 70.6748 20.3958 72.1209 20.3958C73.5639 20.3958 74.7402 19.2194 74.7402 17.7733C74.7402 16.3303 73.5639 15.154 72.1209 15.154C70.6748 15.154 69.5016 16.3303 69.5016 17.7733ZM69.8529 23.0026C68.893 22.9524 68.0021 22.7296 67.312 22.2936C66.5403 21.8042 66.0415 20.9447 65.7247 19.966C65.6902 19.8594 65.6557 19.7496 65.6275 19.6398C64.9562 17.2369 65.2699 14.307 65.2699 14.307L55.4011 7.12659C55.4011 7.12659 61.813 -4.88155 73.865 2.27691C82.4288 7.82612 77.5823 17.9584 76.6977 20.1793C76.133 21.5941 73.567 22.7641 71.0794 22.9775C70.7971 23.0026 70.5179 23.0151 70.2419 23.012C70.1101 23.012 69.9815 23.0088 69.8529 23.0026ZM72.1209 20.7189C73.7427 20.7189 75.0633 19.3982 75.0633 17.7733C75.0633 16.1515 73.7427 14.8309 72.1209 14.8309C70.496 14.8309 69.1753 16.1515 69.1753 17.7733C69.1753 19.3982 70.496 20.7189 72.1209 20.7189Z" fill="#FA8832" fill-opacity="0.46"/>
<path d="M50.6769 56.0766C50.9906 56.0202 62.3619 53.8463 65.8565 52.7201C65.7655 51.6599 65.6714 50.5494 65.5804 49.4201C68.3535 47.6352 71.3116 45.6087 72.1554 44.5735C74.2195 42.0452 74.3042 38.3907 72.3844 34.7989C72.3436 34.7205 72.2464 34.6922 72.168 34.733C72.0864 34.7738 72.0582 34.8742 72.0989 34.9526C73.956 38.4252 73.8807 41.9448 71.9045 44.3696C70.8442 45.6652 66.189 48.6766 63.0113 50.656C59.8273 52.5068 56.4959 54.3074 54.4098 55.0446C53.2555 55.4555 51.9693 55.7943 50.6769 56.0766ZM67.3779 93.0108L56.6496 93.1864C56.6496 93.1864 50.8808 77.025 49.6449 68.3577L49.8958 78.6186L50.2534 93.3056L56.728 93.1896C54.7988 93.5346 52.9261 94.1871 51.5145 94.9588C50.0244 95.7713 50.0746 97.4276 50.1593 98.0894H68.3252C68.3786 98.0738 68.4287 98.0581 68.4664 98.0393C69.8749 97.3993 67.6727 93.5221 67.3779 93.0108ZM54.9588 94.4098C55.9156 93.7856 58.309 93.2868 58.4126 93.2649C58.4973 93.246 58.5851 93.3025 58.6039 93.3903C58.6196 93.4782 58.5631 93.566 58.4753 93.5817C58.4533 93.588 56.041 94.0899 55.1345 94.6796L54.9557 94.7957C54.0397 95.3823 53.0955 95.9877 53.1331 97.8793C53.1363 97.9671 53.0641 98.0424 52.9731 98.0455C52.9731 98.0455 52.9731 98.0455 52.97 98.0455C52.8822 98.0455 52.81 97.9734 52.81 97.8855C52.7661 95.812 53.8828 95.0968 54.78 94.5228L54.9588 94.4098ZM10.2451 94.7235C8.46961 97.1452 7.41875 100.135 7.41875 103.369C7.41875 110.399 12.3751 116.271 18.9846 117.683H0.326172C0.147362 117.683 -7.62939e-05 117.827 -7.62939e-05 118.006C-7.62939e-05 118.185 0.147362 118.329 0.326172 118.329H124.677C124.856 118.329 125 118.185 125 118.006C125 117.827 124.856 117.683 124.677 117.683H97.2414C103.848 116.271 108.807 110.399 108.807 103.369C108.807 100.985 108.233 98.7388 107.226 96.7531H81.5724L80.7914 97.4621C79.9946 99.2689 79.546 101.267 79.546 103.369C79.546 110.399 84.5055 116.271 91.1118 117.683H25.111C31.2594 116.368 35.9773 111.196 36.6047 104.818C33.794 101.264 29.5623 96.7123 24.9918 94.62C19.4802 92.0948 13.9655 94.3847 10.2451 94.7235ZM94.1766 108.959C91.4067 108.959 89.1607 106.71 89.1607 103.94C89.1607 101.167 91.4067 98.9207 94.1766 98.9207C96.9465 98.9207 99.1925 101.167 99.1925 103.94C99.1925 106.71 96.9465 108.959 94.1766 108.959ZM17.0303 103.94C17.0303 101.167 19.2763 98.9207 22.0462 98.9207C24.8193 98.9207 27.0653 101.167 27.0653 103.94C27.0653 106.71 24.8193 108.959 22.0462 108.959C19.2763 108.959 17.0303 106.71 17.0303 103.94ZM66.2015 76.7615C66.2078 76.7803 66.2329 76.8337 66.2768 76.9246L66.236 76.9215C66.236 76.9215 66.2235 76.8619 66.2015 76.7615ZM39.8137 55.7912L41.2065 55.2579L41.0999 54.9505L39.5189 55.5559L39.5063 55.65C39.3558 56.8421 38.1951 58.1125 36.9717 58.4231C36.52 58.5391 36.1184 58.6238 35.7608 58.5015C35.4911 58.4074 35.2997 58.2192 35.1397 57.9808C36.1749 57.5761 36.9591 56.6225 37.0846 55.4367C37.2634 53.7428 36.0369 52.2245 34.3429 52.0457C32.9753 51.9014 31.7205 52.6762 31.1966 53.8777C32.0624 54.8846 32.489 56.2492 32.2663 57.6482C32.6772 57.9306 33.1635 58.1219 33.6936 58.1784C34.0826 58.2192 34.4622 58.1815 34.8198 58.0874C35.0205 58.4042 35.2715 58.6771 35.6573 58.8089C35.7044 58.8246 35.7546 58.834 35.8016 58.8434C35.9208 58.8716 36.0369 58.8873 36.153 58.8873C36.4729 58.8873 36.7835 58.8058 37.0533 58.7367C38.3802 58.398 39.6004 57.0899 39.8137 55.7912ZM34.0983 56.5095C33.2858 56.5095 32.6239 55.8445 32.6239 55.032C32.6239 54.2164 33.2858 53.5546 34.0983 53.5546C34.9139 53.5546 35.5758 54.2164 35.5758 55.032C35.5758 55.8445 34.9139 56.5095 34.0983 56.5095ZM39.3652 49.9691C39.2867 49.9628 39.202 49.9628 39.1487 49.9628C39.0766 49.9628 39.017 49.9628 38.9793 49.9596C38.446 49.9063 37.9159 49.9126 37.4454 49.9157C36.5262 49.9157 35.651 49.8749 34.7257 49.8279L34.1736 49.8028C33.7814 49.784 33.3736 49.7652 33.0066 49.8969C32.7964 49.9753 32.602 50.1008 32.3887 50.2482C31.5793 50.7972 30.7825 51.3901 30.0171 52.0112C29.7976 52.19 29.6031 52.3562 29.4713 52.557C29.4619 52.5758 29.4556 52.5915 29.4462 52.6103C29.3427 52.5664 29.2423 52.5256 29.1357 52.4911C29.1576 52.4566 29.1764 52.419 29.2015 52.3813C29.3584 52.1398 29.5717 51.9579 29.8132 51.7602C30.5849 51.1329 31.388 50.5337 32.2067 49.9785C32.4357 49.8216 32.649 49.6836 32.8968 49.5926C33.3203 49.4389 33.7814 49.4609 34.1892 49.4797L34.7413 49.5048C35.6636 49.5518 36.5325 49.5926 37.4422 49.5926C37.919 49.5895 38.4586 49.5832 39.0107 49.6365C39.0421 49.6397 39.0923 49.6397 39.1519 49.6397C39.1864 49.6397 39.2177 49.6397 39.2522 49.6397L39.3652 49.9691ZM32.947 55.032C32.947 54.3952 33.4646 53.8777 34.0983 53.8777C34.7351 53.8777 35.2527 54.3952 35.2527 55.032C35.2527 55.6657 34.7351 56.1833 34.0983 56.1833C33.4646 56.1833 32.947 55.6657 32.947 55.032ZM65.2699 14.3085C65.2699 14.3085 60.461 13.6184 56.1414 12.3699C52.3018 11.2594 48.8449 9.71293 49.4911 7.81509C50.4855 5.12988 52.5842 6.75794 55.4011 7.1281L65.2699 14.3085ZM57.0794 15.6041C56.5335 15.7452 55.6928 16.0213 55.2662 16.1624C55.1031 16.2189 54.9964 16.2534 54.9933 16.2534C54.94 16.2722 54.8992 16.3193 54.8867 16.3757C54.8772 16.4291 54.8961 16.4887 54.9368 16.5263C54.9431 16.5326 54.9714 16.5577 55.0121 16.5953C55.2411 16.7961 55.9469 17.3984 56.728 17.8438C56.957 17.9756 57.1703 18.0791 57.3711 18.1607C57.7852 18.3238 58.3122 18.4336 58.9427 18.4806C59.2062 18.4994 59.4666 18.5089 59.7206 18.5089C60.8845 18.5089 61.8945 18.3395 61.9447 18.3332C61.9949 18.3238 62.0388 18.2924 62.0608 18.2485C62.0859 18.2046 62.0859 18.1512 62.0671 18.1042C62.0451 18.0634 61.5746 17.0784 59.6234 15.924L59.5513 15.8833C58.8517 15.5445 58.3686 15.4566 57.553 15.51C57.4244 15.5162 57.2268 15.5664 57.0794 15.6041ZM58.9929 18.1575C59.2783 17.9411 59.5011 17.6305 59.592 17.2541C59.6799 16.8996 59.6422 16.5451 59.5136 16.2346C60.8248 17.022 61.424 17.7215 61.653 18.0477C61.1762 18.1136 60.0626 18.2359 58.9929 18.1575ZM55.3666 16.4699C55.6897 16.3632 56.2512 16.1781 56.7374 16.037C56.6496 16.1781 56.5806 16.3381 56.5367 16.5106C56.4645 16.8024 56.4771 17.0941 56.5555 17.3607C56.0567 17.0408 55.6144 16.6832 55.3666 16.4699ZM60.5519 15.6919C58.9145 14.3775 56.75 14.4309 56.2606 14.3493C56.1351 14.3273 55.9908 14.2521 55.856 14.1391C55.467 13.8129 55.1658 13.173 55.6552 12.5863C55.6552 12.5863 55.8246 12.602 56.1101 12.6428C56.7563 12.7369 57.9891 12.9659 59.1497 13.449C60.8248 14.1454 62.1894 17.0063 60.5519 15.6919ZM66.9858 88.4371C66.9858 88.5061 66.9387 88.5657 66.876 88.5877C66.8603 88.594 66.8415 88.5971 66.8258 88.5971H59.4352C59.3442 88.5971 59.2721 88.525 59.2721 88.4371C59.2721 88.3462 59.3442 88.274 59.4352 88.274H66.8258C66.9136 88.274 66.9858 88.3462 66.9858 88.4371ZM109.13 68.0346H119.285C119.413 68.0346 119.532 68.1099 119.583 68.2291C119.601 68.273 119.604 68.3138 119.604 68.3577C119.604 68.4392 119.579 68.5208 119.52 68.5804L110.598 77.9786L110.595 77.9849C110.529 78.0508 110.445 78.0853 110.36 78.0853C110.278 78.0853 110.2 78.0571 110.137 77.9975C110.009 77.8751 110.002 77.6775 110.118 77.5489C110.122 77.5457 110.122 77.5426 110.125 77.5395L118.532 68.6808H102.442C102.455 68.6871 102.474 68.6933 102.483 68.6996C103.418 69.2548 103.242 71.1213 102.684 73.1948C102.618 73.2011 66.1137 76.2972 66.2015 76.7584C66.0415 76.0432 65.4079 73.0882 65.4048 71.7958C65.4048 71.5103 65.4361 71.3033 65.5083 71.2248C65.8031 70.908 79.9726 69.3678 90.7134 68.6871C92.1752 68.593 93.5712 68.5177 94.8636 68.4612C94.851 68.4267 94.8416 68.3953 94.8416 68.3577C94.8416 68.1789 94.9891 68.0346 95.1679 68.0346H108.481V52.6731H95.1679C94.9891 52.6731 94.8416 52.5288 94.8416 52.35C94.8416 52.1712 94.9891 52.0237 95.1679 52.0237H108.481V49.6303C108.481 49.4483 108.628 49.304 108.807 49.304C108.986 49.304 109.13 49.4483 109.13 49.6303V52.0237H122.443C122.622 52.0237 122.77 52.1712 122.77 52.35C122.77 52.5288 122.622 52.6731 122.443 52.6731H109.13V68.0346Z" fill="#231F20"/>
<path d="M63.492 24.9033C62.2874 23.5513 62.3972 22.2683 62.5007 21.7695C63.7931 21.2519 65.1608 20.3516 65.7223 19.9658C66.0392 20.9445 66.5379 21.804 67.3096 22.2934C67.9997 22.7294 68.8906 22.9521 69.8505 23.0023C69.3392 23.4697 67.1779 25.3613 64.6903 26.2522C64.4676 26.0012 64.1037 25.5903 63.492 24.9033ZM65.8102 30.4557L65.0322 26.6349C65.0322 26.6349 65.0322 26.6349 64.9256 26.5157C67.7488 25.4711 70.0732 23.2407 70.1893 23.1278C70.2238 23.0964 70.2395 23.0525 70.2395 23.0117C70.5156 23.0149 70.7947 23.0023 71.0771 22.9772L71.7358 28.9499C68.9063 28.8245 66.9802 29.5052 65.8102 30.4557ZM65.6251 19.6396C65.1451 19.9721 63.7241 20.9194 62.4129 21.4527C58.7427 19.1282 55.4113 19.718 55.4113 19.718L55.3454 19.7023C55.3454 19.7023 54.4639 19.5423 54.1628 18.871C53.984 18.4632 54.5173 17.45 55.0098 16.5936C55.2387 16.7944 55.9445 17.3967 56.7256 17.8421C56.9546 17.9738 57.168 18.0774 57.3687 18.1589C57.7828 18.322 58.3098 18.4318 58.9403 18.4789C59.2038 18.4977 59.4642 18.5071 59.7183 18.5071C60.8821 18.5071 61.8922 18.3377 61.9423 18.3315C61.9925 18.322 62.0365 18.2907 62.0584 18.2468C62.0835 18.1997 62.0835 18.1495 62.0647 18.1025C62.0427 18.0617 61.5722 17.0767 59.621 15.9223L59.5489 15.8815C58.8493 15.5427 58.3663 15.4549 57.5507 15.5082C57.422 15.5176 57.2213 15.5647 57.077 15.6023C56.528 15.7435 55.6905 16.0195 55.2607 16.1607C55.4772 15.7905 55.656 15.4831 55.7124 15.3263C55.7626 14.8463 55.8097 14.4417 55.8504 14.1374C55.9853 14.2503 56.1296 14.3256 56.2551 14.3476C56.7445 14.4291 58.9121 14.3789 60.5464 15.6902C62.1839 17.0045 60.8225 14.1437 59.1474 13.4473C57.9836 12.9642 56.7507 12.7352 56.1045 12.6411C56.1171 12.5501 56.1296 12.4591 56.1359 12.3682C60.4586 13.6167 65.2675 14.3068 65.2675 14.3068C65.2675 14.3068 64.9538 17.2367 65.6251 19.6396ZM55.4332 20.8316C55.2733 22.8329 55.2042 25.057 55.383 25.3393C55.6716 25.7942 56.5437 27.1776 62.6199 26.9643C62.6983 26.958 62.7705 27.0207 62.783 27.1023C62.783 27.1086 62.7862 27.1148 62.7862 27.1211C62.7893 27.2089 62.7203 27.2842 62.6293 27.2874C62.2059 27.3031 61.8043 27.3093 61.4279 27.3093C61.1456 27.3093 60.8821 27.3062 60.628 27.2968C58.9623 27.2497 57.8047 27.049 57.0017 26.7917C55.6465 26.362 55.2733 25.7754 55.0944 25.4899C54.7902 25.01 55.0537 21.5029 55.1101 20.8065C55.1164 20.7187 55.1948 20.6528 55.2827 20.6559C55.2827 20.6559 55.2827 20.6559 55.2858 20.6559C55.3736 20.6653 55.4395 20.7437 55.4332 20.8316ZM96.6555 43.1978H93.5531V46.3034C93.5531 46.639 93.2802 46.912 92.9445 46.912C92.6089 46.912 92.336 46.639 92.336 46.3034V43.1978H89.2367C88.9011 43.1978 88.6281 42.9281 88.6281 42.5893C88.6281 42.2536 88.9011 41.9807 89.2367 41.9807H92.336V38.8783C92.336 38.5426 92.6089 38.2697 92.9445 38.2697C93.2802 38.2697 93.5531 38.5426 93.5531 38.8783V41.9807H96.6555C96.9912 41.9807 97.2641 42.2536 97.2641 42.5893C97.2641 42.9281 96.9912 43.1978 96.6555 43.1978ZM116.97 42.9469H115.16V44.7569C115.16 44.9545 115 45.1145 114.806 45.1145C114.608 45.1145 114.451 44.9545 114.451 44.7569V42.9469H112.638C112.444 42.9469 112.284 42.7869 112.284 42.5893C112.284 42.3948 112.444 42.2348 112.638 42.2348H114.451V40.4248C114.451 40.2272 114.608 40.0672 114.806 40.0672C115 40.0672 115.16 40.2272 115.16 40.4248V42.2348H116.97C117.168 42.2348 117.325 42.3948 117.325 42.5893C117.325 42.7869 117.168 42.9469 116.97 42.9469Z" fill="#F7A7AB"/>
<path d="M94.1765 108.959C96.9464 108.959 99.1924 106.709 99.1924 103.939C99.1924 101.166 96.9464 98.9204 94.1765 98.9204C91.4066 98.9204 89.1605 101.166 89.1605 103.939C89.1605 106.709 91.4066 108.959 94.1765 108.959ZM22.0461 98.9204C24.8191 98.9204 27.0651 101.166 27.0651 103.939C27.0651 106.709 24.8191 108.959 22.0461 108.959C19.2762 108.959 17.0301 106.709 17.0301 103.939C17.0301 101.166 19.2762 98.9204 22.0461 98.9204ZM39.5062 55.6528C39.3556 56.8417 38.1949 58.1121 36.9715 58.4227C36.5198 58.5388 36.1183 58.6235 35.7607 58.5011C35.4909 58.4102 35.2996 58.2188 35.1396 57.9804C36.1748 57.5757 36.959 56.6221 37.0845 55.4363C37.2633 53.7424 36.0367 52.2241 34.3428 52.0453C32.9751 51.901 31.7203 52.6759 31.1965 53.8773C30.7291 53.3315 30.1362 52.8923 29.4461 52.61C29.4555 52.5912 29.4617 52.5755 29.4712 52.5598C29.6029 52.3559 29.7974 52.1896 30.017 52.0108C30.7824 51.3929 31.5792 50.7968 32.3885 50.2479C32.6018 50.1004 32.7932 49.975 33.0065 49.8997C33.3704 49.7648 33.7782 49.7836 34.1734 49.8024L34.7255 49.8307C35.6509 49.8746 36.5261 49.9185 37.4452 49.9185C37.9126 49.9122 38.4459 49.9091 38.9792 49.9593C39.0137 49.9624 39.0764 49.9624 39.1486 49.9624C39.1988 49.9624 39.2866 49.9624 39.365 49.9687L41.0997 54.9501L39.5187 55.5555L39.5062 55.6528ZM29.4586 57.2934C28.9442 59.7245 27.611 61.5126 26.4315 61.3996C26.4064 61.3965 26.3782 61.3996 26.3531 61.3965C26.3405 61.3934 26.3217 61.3902 26.306 61.3871C26.2715 61.3808 26.2401 61.3714 26.2119 61.362C26.2025 61.362 26.1931 61.3557 26.1837 61.3526C25.8857 61.2522 25.6378 61.0263 25.4371 60.7064C25.4716 60.6625 25.4873 60.606 25.4653 60.5495C24.656 58.2972 24.9948 55.6716 26.3468 53.6985C26.397 53.6232 26.3782 53.5228 26.306 53.4726C26.2966 53.4664 26.284 53.4664 26.2746 53.4601C26.8361 52.6602 27.4918 52.1959 28.1066 52.2524C28.1191 52.2524 28.1286 52.2524 28.138 52.2555C28.1693 52.2586 28.2007 52.2618 28.2352 52.2712C28.2509 52.2743 28.2697 52.2775 28.2823 52.2837C28.3074 52.29 28.3293 52.3026 28.3544 52.3088C29.4774 52.6853 29.9731 54.8623 29.4586 57.2934ZM58.6038 93.39C58.6194 93.4778 58.563 93.5656 58.4751 93.5813C58.4532 93.5876 56.0409 94.0895 55.1343 94.6792L54.9555 94.7953C54.0395 95.3819 53.0953 95.9873 53.133 97.8789C53.1361 97.9667 53.064 98.042 52.973 98.042C52.973 98.042 52.973 98.042 52.9698 98.042C52.882 98.042 52.8099 97.973 52.8099 97.8852C52.7659 95.8117 53.8827 95.0965 54.7799 94.5224L54.9587 94.4095C55.9154 93.7852 58.3089 93.2864 58.4124 93.2645C58.4971 93.2457 58.5849 93.3021 58.6038 93.39ZM35.5756 55.0317C35.5756 54.2161 34.9137 53.5542 34.0981 53.5542C33.2857 53.5542 32.6238 54.2161 32.6238 55.0317C32.6238 55.8441 33.2857 56.5092 34.0981 56.5092C34.9137 56.5092 35.5756 55.8441 35.5756 55.0317ZM34.0981 56.1829C33.4645 56.1829 32.9469 55.6653 32.9469 55.0317C32.9469 54.3949 33.4645 53.8773 34.0981 53.8773C34.7349 53.8773 35.2525 54.3949 35.2525 55.0317C35.2525 55.6653 34.7349 56.1829 34.0981 56.1829ZM70.6903 87.7906C70.6903 87.6996 70.7625 87.6274 70.8534 87.6274H111.975C111.787 87.1444 111.574 86.6519 111.335 86.1562C111.332 86.1562 111.332 86.1594 111.326 86.1594H70.2543C70.1633 86.1594 70.0912 86.0872 70.0912 85.9962C70.0912 85.9084 70.1633 85.8331 70.2543 85.8331H111.182C110.137 83.7439 108.638 81.6736 106.514 80.3874C101.956 77.6269 92.0214 78.3767 86.5035 79.0699C86.2212 79.1044 86.1365 79.117 86.102 79.117C86.0142 79.117 85.942 79.0448 85.942 78.957C85.9389 78.8692 86.0111 78.797 86.0989 78.7907C86.1334 78.7907 86.2589 78.775 86.4659 78.7468C92.0214 78.0504 102.038 77.3007 106.68 80.1114C109.529 81.8335 111.276 84.9234 112.317 87.6274H112.327C112.418 87.6274 112.49 87.6996 112.49 87.7906C112.49 87.8408 112.465 87.8847 112.427 87.916C113.421 90.5887 113.726 92.819 113.732 92.8661C113.738 92.91 113.723 92.9571 113.694 92.9916C113.663 93.0261 113.622 93.048 113.575 93.048L103.148 93.346H103.145C103.057 93.346 102.985 93.277 102.982 93.1892C102.979 93.0982 103.051 93.0261 103.139 93.0229L113.384 92.7281C113.29 92.1446 112.938 90.1997 112.098 87.9505H70.8534C70.7625 87.9537 70.6903 87.8784 70.6903 87.7906ZM62.4151 21.4541C63.7264 20.9208 65.1474 19.9734 65.6273 19.6409C65.6556 19.7507 65.6901 19.8605 65.7246 19.9672C65.1631 20.353 63.7954 21.2533 62.503 21.7709C62.3994 22.2697 62.2928 23.5527 63.4942 24.9047C64.1059 25.5917 64.4729 26.0026 64.6925 26.2536C67.1801 25.3627 69.3414 23.4711 69.8528 23.0037C69.9814 23.01 70.11 23.0131 70.2417 23.0131C70.2417 23.0539 70.2261 23.0978 70.1916 23.1292C70.0755 23.2421 67.751 25.4756 64.9278 26.5171C65.0345 26.6363 65.0345 26.6394 65.0345 26.6394C64.2377 26.8433 63.4879 26.997 62.7853 27.1037C62.7727 27.0221 62.7006 26.9594 62.6222 26.9656C56.5459 27.1821 55.6739 25.7956 55.3853 25.3407C55.2065 25.0584 55.2755 22.8343 55.4355 20.833C55.4417 20.7451 55.3759 20.6667 55.288 20.6604C55.2849 20.6604 55.2849 20.6604 55.2849 20.6604C55.3037 20.3436 55.3257 20.0268 55.3476 19.7037L55.4135 19.7194C55.4135 19.7194 58.7449 19.1296 62.4151 21.4541ZM57.0039 26.7931C57.807 27.0503 58.9645 27.2511 60.6302 27.2982C59.1088 27.3358 57.898 27.1288 57.0039 26.7931ZM72.1208 20.72C73.7425 20.72 75.0632 19.3994 75.0632 17.7745C75.0632 16.1527 73.7425 14.832 72.1208 14.832C70.4958 14.832 69.1752 16.1527 69.1752 17.7745C69.1752 19.3994 70.4958 20.72 72.1208 20.72ZM69.5014 17.7745C69.5014 16.3315 70.6746 15.1551 72.1208 15.1551C73.5637 15.1551 74.7401 16.3315 74.7401 17.7745C74.7401 19.2206 73.5637 20.3969 72.1208 20.3969C70.6746 20.3969 69.5014 19.2206 69.5014 17.7745ZM56.5365 16.5103C56.4644 16.802 56.4769 17.0938 56.5554 17.3604C56.0566 17.0404 55.6143 16.6828 55.3665 16.4695C55.6896 16.3628 56.2511 16.1778 56.7373 16.0366C56.6495 16.1778 56.5804 16.3378 56.5365 16.5103ZM59.5919 17.2537C59.6797 16.8993 59.6421 16.5448 59.5135 16.2342C60.8247 17.0216 61.4239 17.7211 61.6528 18.0474C61.176 18.1133 60.0624 18.2356 58.9927 18.1603C59.2782 17.9407 59.5009 17.6302 59.5919 17.2537ZM21.3465 82.0814C21.3465 82.417 21.0768 82.6899 20.7411 82.6899H17.6387V85.7923C17.6387 86.128 17.3658 86.4009 17.0301 86.4009C16.6945 86.4009 16.4216 86.128 16.4216 85.7923V82.6899H13.3223C12.9866 82.6899 12.7137 82.417 12.7137 82.0814C12.7137 81.7457 12.9866 81.4728 13.3223 81.4728H16.4216V78.3704C16.4216 78.0347 16.6945 77.7618 17.0301 77.7618C17.3658 77.7618 17.6387 78.0347 17.6387 78.3704V81.4728H20.738C21.0768 81.4728 21.3465 81.7457 21.3465 82.0814ZM83.4952 93.2551H81.61V95.1404C81.61 95.3443 81.4437 95.5105 81.2398 95.5105C81.0359 95.5105 80.8728 95.3443 80.8728 95.1404V93.2551H78.9875C78.7836 93.2551 78.6173 93.0888 78.6173 92.8849C78.6173 92.681 78.7836 92.5148 78.9875 92.5148H80.8728V90.6326C80.8728 90.4287 81.0359 90.2625 81.2398 90.2625C81.4437 90.2625 81.61 90.4287 81.61 90.6326V92.5148H83.4952C83.6991 92.5148 83.8654 92.681 83.8654 92.8849C83.8623 93.0888 83.6991 93.2551 83.4952 93.2551ZM84.7312 54.1283H82.8741V55.9853C82.8741 56.1861 82.7141 56.3492 82.5102 56.3492C82.3095 56.3492 82.1464 56.1861 82.1464 55.9853V54.1283H80.2924C80.0917 54.1283 79.9286 53.9651 79.9286 53.7644C79.9286 53.5636 80.0917 53.4005 80.2924 53.4005H82.1464V51.5434C82.1464 51.3427 82.3095 51.1795 82.5102 51.1795C82.7141 51.1795 82.8741 51.3427 82.8741 51.5434V53.4005H84.7312C84.9319 53.4005 85.0951 53.5636 85.0951 53.7644C85.0951 53.9651 84.9319 54.1283 84.7312 54.1283ZM115.997 64.6777H117.851V62.8207C117.851 62.6199 118.014 62.4568 118.215 62.4568C118.415 62.4568 118.579 62.6199 118.579 62.8207V64.6777H120.433C120.633 64.6777 120.796 64.8408 120.796 65.0416C120.796 65.2424 120.633 65.4055 120.433 65.4055H118.579V67.2594C118.579 67.4633 118.415 67.6264 118.215 67.6264C118.014 67.6264 117.851 67.4633 117.851 67.2594V65.4055H115.997C115.796 65.4055 115.633 65.2424 115.633 65.0416C115.633 64.8408 115.796 64.6777 115.997 64.6777Z" fill="white"/>
</svg>
